<?xml version="1.0" standalone="no"?><!DOCTYPE svg PUBLIC "-//W3C//DTD SVG 1.1//EN" "http://www.w3.org/Graphics/SVG/1.1/DTD/svg11.dtd"><svg t="1726563052846" class="icon" viewBox="0 0 1024 1024" version="1.1" xmlns="http://www.w3.org/2000/svg" p-id="18576" xmlns:xlink="http://www.w3.org/1999/xlink" width="200" height="200"><path d="M786.28571469 477.71428531L669.71428531 587.42857156l27.42857156 157.71428531c0 6.85714313-6.85714313 20.57142844-6.85714218 27.42857157-6.85714313 6.85714313-27.42857156 6.85714313-27.42857157 0l-144-68.57142844-150.85714312 68.57142844c-6.85714313 0-20.57142844 6.85714313-27.42857156 0-6.85714313-6.85714313-13.71428531-20.57142844-6.85714313-27.42857157l27.42857156-157.71428531-116.57142843-102.85714312C237.71428531 477.71428531 237.71428531 464 237.71428531 457.14285687c6.85714313-6.85714313 13.71428531-20.57142844 27.42857156-20.57142843l150.85714313-34.28571375 68.57142844-144c6.85714313-6.85714313 13.71428531-13.71428531 27.42857156-13.71428625 6.85714313 0 20.57142844 6.85714313 27.42857156 13.71428625l68.57142844 144 164.57142844 27.42857062c6.85714313 0 20.57142844 6.85714313 27.42857156 20.57142938 0 6.85714313-6.85714313 20.57142844-13.71428531 27.42857062m13.71428531-445.71428531H224C121.14285688 32 32 121.14285688 32 224v576C32 902.85714312 121.14285688 992 224 992h576c102.85714313 0 192-89.14285687 192-192V224C992 114.28571469 902.85714312 32 800 32" p-id="18577"></path></svg>
